<?xml version="1.0" encoding="UTF-8" standalone="no" ?>
<!DOCTYPE svg PUBLIC "-//W3C//DTD SVG 1.1//EN" "http://www.w3.org/Graphics/SVG/1.1/DTD/svg11.dtd">
<svg xmlns="http://www.w3.org/2000/svg" xmlns:xlink="http://www.w3.org/1999/xlink" version="1.1" width="143.5095" height="153.456" xml:space="preserve">
<desc>Created with Fabric.js 1.6.0-rc.1</desc>
<defs></defs>
<g style="stroke: none; stroke-width: 1; stroke-dasharray: none; stroke-linecap: butt; stroke-linejoin: miter; stroke-miterlimit: 10; fill: none; fill-rule: nonzero; opacity: 1;" transform="translate(10 10) scale(0.95 0.95)" >
  <polygon points="69.74,104.94 51.42,112.78 44.62,101.4 44.62,130.12 69.62,118.61 94.62,130.12 94.62,101.79 88.06,112.78 " style="stroke: none; stroke-width: 1; stroke-dasharray: none; stroke-linecap: butt; stroke-linejoin: miter; stroke-miterlimit: 10; fill: #94D5D2; fill-rule: nonzero; opacity: 1;" transform="  matrix(1 0 0 1 0 0) "/>
  <path d="M 109.728 43.394 l 1.527 -17.17 l -16.812 -3.845 L 85.601 7.578 l -15.859 6.78 l -15.858 -6.78 l -8.843 14.8 l -16.811 3.845 l 1.526 17.17 L 18.428 56.387 l 11.326 12.994 l -1.527 17.17 l 16.811 3.846 l 8.844 14.802 l 15.859 -6.781 l 15.859 6.781 l 8.843 -14.802 l 16.812 -3.845 l -1.527 -17.171 l 11.326 -12.994 L 109.728 43.394 z M 69.741 96.642 c -22.197 0 -40.256 -18.059 -40.256 -40.255 c 0 -22.195 18.059 -40.253 40.256 -40.253 c 22.196 0 40.255 18.058 40.255 40.253 C 109.996 78.583 91.938 96.642 69.741 96.642 z" style="stroke: none; stroke-width: 1; stroke-dasharray: none; stroke-linecap: butt; stroke-linejoin: miter; stroke-miterlimit: 10; fill: #FFEB97; fill-rule: nonzero; opacity: 1;" transform=" matrix(1 0 0 1 0 0) " stroke-linecap="round" />
  <path d="M 115.931 41.378 l 1.764 -19.836 L 98.28 17.101 L 88.062 0 l -18.32 7.833 L 51.421 0 L 41.204 17.101 l -19.415 4.441 l 1.763 19.836 L 10.469 56.387 l 13.082 15.01 l -1.764 19.836 l 16.837 3.852 v 44.399 l 31 -14.272 l 31 14.272 V 95.138 l 17.07 -3.904 l -1.764 -19.837 l 13.082 -15.01 L 115.931 41.378 z M 94.624 130.115 l -25 -11.51 l -25 11.51 v -28.714 l 6.796 11.375 l 18.321 -7.834 l 18.32 7.834 l 6.563 -10.984 V 130.115 z M 111.255 86.552 l -16.812 3.845 l -8.843 14.802 l -15.859 -6.781 l -15.859 6.781 l -8.844 -14.802 l -16.811 -3.846 l 1.527 -17.17 L 18.428 56.387 l 11.326 -12.993 l -1.526 -17.17 l 16.811 -3.845 l 8.843 -14.8 l 15.858 6.78 l 15.859 -6.78 l 8.843 14.801 l 16.812 3.845 l -1.527 17.17 l 11.326 12.993 l -11.326 12.994 L 111.255 86.552 z" style="stroke: none; stroke-width: 1; stroke-dasharray: none; stroke-linecap: butt; stroke-linejoin: miter; stroke-miterlimit: 10; fill: #586065; fill-rule: nonzero; opacity: 1;" transform=" matrix(1 0 0 1 0 0) " stroke-linecap="round" />
  <path d="M 69.741 22.134 c -18.889 0 -34.256 15.366 -34.256 34.253 c 0 18.889 15.367 34.255 34.256 34.255 c 18.889 0 34.255 -15.366 34.255 -34.255 C 103.996 37.5 88.63 22.134 69.741 22.134 z M 49.152 46.1 c -0.945 -5.634 2.871 -10.987 8.506 -11.933 c 0.569 -0.096 1.149 -0.144 1.724 -0.144 c 5.076 0 9.37 3.638 10.21 8.65 c 0.945 5.634 -2.871 10.987 -8.505 11.935 c -0.57 0.095 -1.15 0.144 -1.724 0.144 C 54.286 54.752 49.992 51.113 49.152 46.1 z M 59.367 76.055 c -0.585 0.821 -1.508 1.259 -2.445 1.259 c -0.603 0 -1.211 -0.181 -1.739 -0.557 c -1.349 -0.962 -1.664 -2.836 -0.702 -4.185 l 26.312 -36.914 c 0.964 -1.349 2.835 -1.663 4.185 -0.702 c 1.35 0.961 1.663 2.835 0.702 4.184 L 59.367 76.055 z M 82.68 78.609 c -0.569 0.095 -1.147 0.144 -1.721 0.144 c -5.077 0 -9.373 -3.639 -10.213 -8.65 c -0.458 -2.729 0.175 -5.475 1.782 -7.729 c 1.606 -2.254 3.995 -3.747 6.725 -4.205 c 0.569 -0.095 1.148 -0.144 1.723 -0.144 c 5.075 0 9.369 3.638 10.211 8.649 C 92.132 72.31 88.316 77.664 82.68 78.609 z" style="stroke: none; stroke-width: 1; stroke-dasharray: none; stroke-linecap: butt; stroke-linejoin: miter; stroke-miterlimit: 10; fill: #CDE6AD; fill-rule: nonzero; opacity: 1;" transform=" matrix(1 0 0 1 0 0) " stroke-linecap="round" />
  <path d="M 69.741 16.134 c -22.197 0 -40.256 18.058 -40.256 40.253 c 0 22.196 18.059 40.255 40.256 40.255 c 22.196 0 40.255 -18.059 40.255 -40.255 C 109.996 34.191 91.938 16.134 69.741 16.134 z M 69.741 90.642 c -18.889 0 -34.256 -15.366 -34.256 -34.255 c 0 -18.887 15.367 -34.253 34.256 -34.253 c 18.889 0 34.255 15.366 34.255 34.253 C 103.996 75.275 88.63 90.642 69.741 90.642 z" style="stroke: none; stroke-width: 1; stroke-dasharray: none; stroke-linecap: butt; stroke-linejoin: miter; stroke-miterlimit: 10; fill: #586065; fill-rule: nonzero; opacity: 1;" transform=" matrix(1 0 0 1 0 0) " stroke-linecap="round" />
  <path d="M 63.675 43.666 c -0.354 -2.11 -2.16 -3.642 -4.293 -3.642 c -0.243 0 -0.488 0.021 -0.731 0.061 c -2.373 0.398 -3.979 2.651 -3.582 5.023 c 0.395 2.351 2.648 3.982 5.025 3.582 C 62.466 48.292 64.072 46.038 63.675 43.666 z" style="stroke: none; stroke-width: 1; stroke-dasharray: none; stroke-linecap: butt; stroke-linejoin: miter; stroke-miterlimit: 10; fill: #FFFFFF; fill-rule: nonzero; opacity: 1;" transform=" matrix(1 0 0 1 0 0) " stroke-linecap="round" />
  <path d="M 61.087 54.608 c 5.635 -0.947 9.45 -6.301 8.505 -11.935 c -0.84 -5.012 -5.134 -8.65 -10.21 -8.65 c -0.575 0 -1.155 0.048 -1.724 0.144 c -5.635 0.945 -9.451 6.298 -8.506 11.933 c 0.84 5.013 5.135 8.651 10.211 8.651 C 59.937 54.752 60.516 54.703 61.087 54.608 z M 55.069 45.108 c -0.397 -2.372 1.209 -4.625 3.582 -5.023 c 0.243 -0.041 0.488 -0.061 0.731 -0.061 c 2.134 0 3.939 1.532 4.293 3.642 c 0.397 2.372 -1.209 4.626 -3.582 5.024 C 57.717 49.091 55.463 47.459 55.069 45.108 z" style="stroke: none; stroke-width: 1; stroke-dasharray: none; stroke-linecap: butt; stroke-linejoin: miter; stroke-miterlimit: 10; fill: #586065; fill-rule: nonzero; opacity: 1;" transform=" matrix(1 0 0 1 0 0) " stroke-linecap="round" />
  <path d="M 80.976 64.025 c -0.242 0 -0.488 0.021 -0.731 0.062 c -1.149 0.192 -2.155 0.821 -2.832 1.77 c -0.676 0.949 -0.942 2.104 -0.749 3.254 c 0.394 2.35 2.649 3.982 5.024 3.581 c 2.372 -0.397 3.979 -2.651 3.58 -5.024 C 84.915 65.557 83.11 64.025 80.976 64.025 z" style="stroke: none; stroke-width: 1; stroke-dasharray: none; stroke-linecap: butt; stroke-linejoin: miter; stroke-miterlimit: 10; fill: #FFFFFF; fill-rule: nonzero; opacity: 1;" transform=" matrix(1 0 0 1 0 0) " stroke-linecap="round" />
  <path d="M 80.976 58.025 c -0.574 0 -1.153 0.049 -1.723 0.144 c -2.729 0.458 -5.118 1.951 -6.725 4.205 c -1.607 2.254 -2.24 4.999 -1.782 7.729 c 0.84 5.012 5.136 8.65 10.213 8.65 c 0.573 0 1.151 -0.049 1.721 -0.144 c 5.636 -0.945 9.452 -6.3 8.507 -11.935 C 90.345 61.663 86.051 58.025 80.976 58.025 z M 81.689 72.691 c -2.375 0.401 -4.631 -1.231 -5.024 -3.581 c -0.193 -1.149 0.073 -2.305 0.749 -3.254 c 0.677 -0.948 1.683 -1.577 2.832 -1.77 c 0.242 -0.041 0.488 -0.062 0.731 -0.062 c 2.134 0 3.939 1.531 4.293 3.642 C 85.667 70.04 84.061 72.294 81.689 72.691 z" style="stroke: none; stroke-width: 1; stroke-dasharray: none; stroke-linecap: butt; stroke-linejoin: miter; stroke-miterlimit: 10; fill: #586065; fill-rule: nonzero; opacity: 1;" transform=" matrix(1 0 0 1 0 0) " stroke-linecap="round" />
  <path d="M 84.978 34.957 c -1.35 -0.961 -3.221 -0.648 -4.185 0.702 L 54.481 72.572 c -0.962 1.349 -0.647 3.223 0.702 4.185 c 0.528 0.376 1.136 0.557 1.739 0.557 c 0.937 0 1.86 -0.438 2.445 -1.259 L 85.68 39.141 C 86.641 37.792 86.327 35.918 84.978 34.957 z" style="stroke: none; stroke-width: 1; stroke-dasharray: none; stroke-linecap: butt; stroke-linejoin: miter; stroke-miterlimit: 10; fill: #586065; fill-rule: nonzero; opacity: 1;" transform=" matrix(1 0 0 1 0 0) " stroke-linecap="round" />
</g>
</svg>