<?xml version="1.0" encoding="UTF-8" standalone="no" ?>
<!DOCTYPE svg PUBLIC "-//W3C//DTD SVG 1.1//EN" "http://www.w3.org/Graphics/SVG/1.1/DTD/svg11.dtd">
<svg xmlns="http://www.w3.org/2000/svg" xmlns:xlink="http://www.w3.org/1999/xlink" version="1.1" width="172.4104" height="214.94" xml:space="preserve">
<desc>Created with Fabric.js 1.6.0-rc.1</desc>
<defs></defs>
<g style="stroke: none; stroke-width: 1; stroke-dasharray: none; stroke-linecap: butt; stroke-linejoin: miter; stroke-miterlimit: 10; fill: none; fill-rule: nonzero; opacity: 1;" transform="translate(10 10) scale(0.38 0.38)" >
  <path d="M 383.725 337.605 c 1.898 15.495 -0.379 31.576 -0.379 48.078 c 0 25.124 -2.323 49.285 -6.598 71.857 c 13.2 1.957 23.333 13.335 23.333 27.081 c 0 15.121 -12.258 27.38 -27.38 27.38 c -7.825 0 -14.875 -3.287 -19.866 -8.549 C 324.479 508.942 293.067 512 260 512 c -35.723 0 -69.516 -3.572 -99.607 -9.923 c -5.023 6.062 -12.608 9.923 -21.093 9.923 c -15.121 0 -27.38 -12.258 -27.38 -27.38 c 0 -13.578 9.888 -24.843 22.853 -26.999 c -4.287 -22.597 -6.614 -46.786 -6.614 -71.94 c 0 -16.501 -2.278 -32.583 -0.379 -48.078 c 0 0 64.274 -13.611 130.715 -13.611 S 383.725 337.605 383.725 337.605 z" style="stroke: none; stroke-width: 1; stroke-dasharray: none; stroke-linecap: butt; stroke-linejoin: miter; stroke-miterlimit: 10; fill: #777677; fill-rule: nonzero; opacity: 1;" transform=" matrix(1 0 0 1 0 0) " stroke-linecap="round" />
  <path d="M 335.079 464.359 c -4.536 0 -8.214 -3.677 -8.214 -8.214 v -60.783 c 0 -4.537 3.678 -8.214 8.214 -8.214 c 4.537 0 8.214 3.677 8.214 8.214 v 60.783 C 343.293 460.683 339.616 464.359 335.079 464.359 z" style="stroke: none; stroke-width: 1; stroke-dasharray: none; stroke-linecap: butt; stroke-linejoin: miter; stroke-miterlimit: 10; fill: #8E8D8E; fill-rule: nonzero; opacity: 1;" transform=" matrix(1 0 0 1 0 0) " stroke-linecap="round" />
  <path d="M 335.079 378.387 c -4.536 0 -8.214 -3.677 -8.214 -8.214 v -6.024 c 0 -4.537 3.678 -8.214 8.214 -8.214 c 4.537 0 8.214 3.677 8.214 8.214 v 6.024 C 343.293 374.711 339.616 378.387 335.079 378.387 z" style="stroke: none; stroke-width: 1; stroke-dasharray: none; stroke-linecap: butt; stroke-linejoin: miter; stroke-miterlimit: 10; fill: #8E8D8E; fill-rule: nonzero; opacity: 1;" transform=" matrix(1 0 0 1 0 0) " stroke-linecap="round" />
  <path d="M 146.662 469.662 l -0.009 -0.017 c 0 0 0.073 -0.02 0.181 -0.054 c 0.28 -0.116 0.56 -0.237 0.844 -0.344 c 1.67 -0.815 4.716 -3.119 3.811 -8.904 c -0.018 -0.11 -0.025 -0.195 -0.038 -0.294 c -2.209 -13.257 -3.749 -27.022 -4.558 -41.17 l -0.025 0.005 c 0 0 -0.03 -0.657 -0.082 -1.871 c -0.232 -4.418 -0.396 -8.869 -0.483 -13.357 c -0.187 -6.074 -0.381 -13.637 -0.511 -22.071 c -0.532 -11.113 -1.24 -22.007 -0.077 -32.628 c 0.047 -3.775 0.116 -7.571 0.212 -11.353 h -18.146 c -1.899 15.495 0.379 31.576 0.379 48.078 c 0 25.153 2.327 49.343 6.614 71.94 c -12.965 2.156 -22.853 13.42 -22.853 26.999 c 0 13.951 10.437 25.457 23.928 27.155 c -3.674 -4.66 -5.873 -10.538 -5.873 -16.934 C 129.974 483.52 136.86 473.828 146.662 469.662 z" style="stroke: none; stroke-width: 1; stroke-dasharray: none; stroke-linecap: butt; stroke-linejoin: miter; stroke-miterlimit: 10; fill: #231F20; fill-rule: nonzero; opacity: 1;" transform=" matrix(1 0 0 1 0 0) " stroke-linecap="round" />
  <path d="M 381.579 133.485 c -11.663 -11.229 -26.988 -17.413 -43.146 -17.413 c -7.432 0 -14.759 1.334 -21.779 3.963 c -22.283 8.346 -38.029 29.066 -40.115 52.788 c -0.071 0.825 0.232 1.638 0.829 2.212 c 11.662 11.225 26.985 17.407 43.143 17.407 c 7.432 0 14.759 -1.333 21.777 -3.962 c 22.283 -8.339 38.03 -29.058 40.12 -52.783 C 382.48 134.872 382.175 134.059 381.579 133.485 z" style="stroke: none; stroke-width: 1; stroke-dasharray: none; stroke-linecap: butt; stroke-linejoin: miter; stroke-miterlimit: 10; fill: #70C449; fill-rule: nonzero; opacity: 1;" transform=" matrix(1 0 0 1 0 0) " stroke-linecap="round" />
  <path d="M 143.126 291.44 h 225.566 c -24.361 -24.989 -65.78 -41.436 -112.782 -41.436 S 167.486 266.451 143.126 291.44 z" style="stroke: none; stroke-width: 1; stroke-dasharray: none; stroke-linecap: butt; stroke-linejoin: miter; stroke-miterlimit: 10; fill: #9B624C; fill-rule: nonzero; opacity: 1;" transform=" matrix(1 0 0 1 0 0) " stroke-linecap="round" />
  <path d="M 143.126 291.44 c 0 0 122.565 17.461 225.566 0" style="stroke: none; stroke-width: 1; stroke-dasharray: none; stroke-linecap: butt; stroke-linejoin: miter; stroke-miterlimit: 10; fill: #9B624C; fill-rule: nonzero; opacity: 1;" transform=" matrix(1 0 0 1 0 0) " stroke-linecap="round" />
  <path d="M 255.909 258.218 c -4.537 0 -8.214 -3.678 -8.214 -8.214 V 8.214 c 0 -4.536 3.677 -8.214 8.214 -8.214 c 4.536 0 8.214 3.678 8.214 8.214 v 241.79 C 264.123 254.541 260.445 258.218 255.909 258.218 z" style="stroke: none; stroke-width: 1; stroke-dasharray: none; stroke-linecap: butt; stroke-linejoin: miter; stroke-miterlimit: 10; fill: #8C6644; fill-rule: nonzero; opacity: 1;" transform=" matrix(1 0 0 1 0 0) " stroke-linecap="round" />
  <path d="M 255.909 224.759 c -4.537 0 -8.214 -3.678 -8.214 -8.214 c 0 -43.948 55.067 -62.584 57.412 -63.357 c 4.311 -1.418 8.952 0.924 10.37 5.233 c 1.418 4.305 -0.92 8.943 -5.221 10.367 l 0 0 c -0.462 0.153 -46.133 15.709 -46.133 47.756 C 264.123 221.081 260.445 224.759 255.909 224.759 z" style="stroke: none; stroke-width: 1; stroke-dasharray: none; stroke-linecap: butt; stroke-linejoin: miter; stroke-miterlimit: 10; fill: #8C6644; fill-rule: nonzero; opacity: 1;" transform=" matrix(1 0 0 1 0 0) " stroke-linecap="round" />
  <path d="M 255.909 157.209 c -4.537 0 -8.214 -3.678 -8.214 -8.214 c 0 -14.877 -23.572 -26.748 -31.828 -29.732 c -4.266 -1.543 -6.474 -6.251 -4.932 -10.517 c 1.542 -4.267 6.252 -6.473 10.518 -4.932 c 1.742 0.63 42.67 15.765 42.67 45.182 C 264.123 153.532 260.445 157.209 255.909 157.209 z" style="stroke: none; stroke-width: 1; stroke-dasharray: none; stroke-linecap: butt; stroke-linejoin: miter; stroke-miterlimit: 10; fill: #8C6644; fill-rule: nonzero; opacity: 1;" transform=" matrix(1 0 0 1 0 0) " stroke-linecap="round" />
  <path d="M 255.916 68.827 c -2.631 0 -5.215 -1.262 -6.804 -3.603 c -2.546 -3.754 -1.569 -8.862 2.185 -11.409 l 17.676 -11.994 c 3.754 -2.547 8.861 -1.569 11.41 2.185 c 2.546 3.754 1.568 8.862 -2.185 11.409 l -17.676 11.994 C 259.108 68.367 257.503 68.827 255.916 68.827 z" style="stroke: none; stroke-width: 1; stroke-dasharray: none; stroke-linecap: butt; stroke-linejoin: miter; stroke-miterlimit: 10; fill: #8C6644; fill-rule: nonzero; opacity: 1;" transform=" matrix(1 0 0 1 0 0) " stroke-linecap="round" />
  <path d="M 386.497 290.893 H 125.319 c -4.536 0 -8.214 3.677 -8.214 8.214 v 30.831 c 0 4.537 3.678 8.214 8.214 8.214 h 261.179 c 4.537 0 8.214 -3.677 8.214 -8.214 v -30.831 C 394.711 294.57 391.034 290.893 386.497 290.893 z" style="stroke: none; stroke-width: 1; stroke-dasharray: none; stroke-linecap: butt; stroke-linejoin: miter; stroke-miterlimit: 10; fill: #595355; fill-rule: nonzero; opacity: 1;" transform=" matrix(1 0 0 1 0 0) " stroke-linecap="round" />
  <path d="M 134.628 329.938 v -30.832 c 0 -4.537 3.678 -8.214 8.214 -8.214 h -17.523 c -4.536 0 -8.214 3.677 -8.214 8.214 v 30.831 c 0 4.537 3.678 8.214 8.214 8.214 h 17.523 C 138.306 338.152 134.628 334.475 134.628 329.938 z" style="stroke: none; stroke-width: 1; stroke-dasharray: none; stroke-linecap: butt; stroke-linejoin: miter; stroke-miterlimit: 10; fill: #231F20; fill-rule: nonzero; opacity: 1;" transform=" matrix(1 0 0 1 0 0) " stroke-linecap="round" />
</g>
</svg>